<svg width="32" height="36" viewBox="0 0 32 36" fill="none" xmlns="http://www.w3.org/2000/svg">
<path d="M31.0397 5.94886C30.7825 5.40176 30.0458 5.21439 29.5031 5.46714C21.1446 9.39685 17.0383 16.2493 15.1726 23.2936C12.8644 8.31574 6.18852 3.74963 3.35729 1.81206C3.00421 1.57013 2.72959 1.39358 2.57705 1.2432C2.15204 0.818186 1.46109 0.818186 1.03608 1.2432C0.611075 1.66821 0.611075 2.35915 1.03608 2.78416C1.25186 2.99779 1.62456 3.26588 2.12803 3.61018C5.31888 5.79193 13.7951 11.5917 13.7951 34.7057C13.7951 35.3073 14.2833 35.7955 14.8849 35.7955C15.4864 35.7955 15.9747 35.3073 15.9747 34.708C15.9747 25.3687 18.4834 13.0564 30.4316 7.44191C30.4316 7.43976 30.6081 7.35691 30.6081 7.35691C31.1508 7.09965 31.2968 6.49371 31.0397 5.94886Z" fill="#156963"/>
</svg>
